<?xml version="1.0" encoding="utf-8" standalone="no"?>
<!DOCTYPE svg PUBLIC "-//W3C//DTD SVG 1.1//EN"
  "http://www.w3.org/Graphics/SVG/1.1/DTD/svg11.dtd">
<svg xmlns:xlink="http://www.w3.org/1999/xlink" width="232.708159pt" height="171.386442pt" viewBox="0 0 232.708159 171.386442" xmlns="http://www.w3.org/2000/svg" version="1.1">
 <metadata>
  <rdf:RDF xmlns:dc="http://purl.org/dc/elements/1.1/" xmlns:cc="http://creativecommons.org/ns#" xmlns:rdf="http://www.w3.org/1999/02/22-rdf-syntax-ns#">
   <cc:Work>
    <dc:type rdf:resource="http://purl.org/dc/dcmitype/StillImage"/>
    <dc:date>2023-05-04T11:18:49.864089</dc:date>
    <dc:format>image/svg+xml</dc:format>
    <dc:creator>
     <cc:Agent>
      <dc:title>Matplotlib v3.6.2, https://matplotlib.org/</dc:title>
     </cc:Agent>
    </dc:creator>
   </cc:Work>
  </rdf:RDF>
 </metadata>
 <defs>
  <style type="text/css">*{stroke-linejoin: round; stroke-linecap: butt}</style>
 </defs>
 <g id="figure_1">
  <g id="patch_1">
   <path d="M 0 171.386442 
L 232.708159 171.386442 
L 232.708159 0 
L 0 0 
z
" style="fill: #ffffff"/>
  </g>
  <g id="axes_1">
   <g id="patch_2">
    <path d="M 60.744375 133.665817 
L 225.508159 133.665817 
L 225.508159 7.2 
L 60.744375 7.2 
z
" style="fill: #ffffff"/>
   </g>
   <g id="line2d_1">
    <path d="M 143.126267 133.665817 
L 143.126267 7.2 
" clip-path="url(#p64bc17e7f9)" style="fill: none; stroke-dasharray: 5.18,2.24; stroke-dashoffset: 0; stroke: #000000; stroke-opacity: 0.5; stroke-width: 1.4"/>
   </g>
   <g id="PolyCollection_1">
    <defs>
     <path id="m51199ccbb9" d="M 68.233638 -146.422245 
L 68.233638 -97.320615 
L 68.533809 -98.159474 
L 68.83398 -100.017343 
L 69.13415 -99.985646 
L 69.434321 -101.065757 
L 69.734492 -100.81298 
L 70.034663 -102.232508 
L 70.334834 -102.010154 
L 70.635005 -101.867889 
L 70.935176 -102.833576 
L 71.235346 -104.250638 
L 71.535517 -102.438285 
L 71.835688 -102.386239 
L 72.135859 -102.499876 
L 72.43603 -103.314613 
L 72.736201 -105.021662 
L 73.036372 -102.536306 
L 73.336542 -100.905553 
L 73.636713 -100.079025 
L 73.936884 -99.995587 
L 74.237055 -98.518202 
L 74.537226 -98.344326 
L 74.837397 -97.812487 
L 75.137568 -98.096713 
L 75.437738 -97.812655 
L 75.737909 -95.34779 
L 76.03808 -95.218956 
L 76.338251 -92.90058 
L 76.638422 -91.426985 
L 76.938593 -91.606263 
L 77.238764 -91.713965 
L 77.538935 -89.39865 
L 77.839105 -89.637728 
L 78.139276 -87.482268 
L 78.439447 -86.853593 
L 78.739618 -87.161023 
L 79.039789 -85.649718 
L 79.33996 -85.414238 
L 79.640131 -86.064308 
L 79.940301 -87.415259 
L 80.240472 -84.59449 
L 80.540643 -86.139288 
L 80.840814 -87.499153 
L 81.140985 -86.418177 
L 81.441156 -84.962272 
L 81.741327 -86.998201 
L 82.041497 -86.501019 
L 82.341668 -86.335184 
L 82.641839 -86.882229 
L 82.94201 -86.949819 
L 83.242181 -88.722009 
L 83.542352 -86.776939 
L 83.842523 -87.654129 
L 84.142693 -89.120742 
L 84.442864 -88.816206 
L 84.743035 -86.886542 
L 85.043206 -88.801748 
L 85.343377 -89.353345 
L 85.643548 -91.335071 
L 85.943719 -92.673612 
L 86.243889 -92.461651 
L 86.54406 -93.055951 
L 86.844231 -93.530765 
L 87.144402 -93.21716 
L 87.444573 -93.904365 
L 87.744744 -94.276712 
L 88.044915 -93.870801 
L 88.345085 -92.212578 
L 88.645256 -94.908303 
L 88.945427 -93.76292 
L 89.245598 -94.605354 
L 89.545769 -93.191778 
L 89.84594 -94.865841 
L 90.146111 -94.067949 
L 90.446281 -96.99821 
L 90.746452 -97.551039 
L 91.046623 -96.20344 
L 91.346794 -96.729335 
L 91.646965 -96.372436 
L 91.947136 -97.98458 
L 92.247307 -97.669159 
L 92.547477 -99.942851 
L 92.847648 -100.227301 
L 93.147819 -101.354452 
L 93.44799 -101.964594 
L 93.748161 -104.579996 
L 94.048332 -104.557207 
L 94.348503 -106.286851 
L 94.648673 -106.196237 
L 94.948844 -107.49759 
L 95.249015 -109.665447 
L 95.549186 -108.559118 
L 95.849357 -108.71889 
L 96.149528 -111.579069 
L 96.449699 -111.685549 
L 96.749869 -111.43256 
L 97.05004 -111.048843 
L 97.350211 -111.827426 
L 97.650382 -112.66921 
L 97.950553 -109.254405 
L 98.250724 -111.040529 
L 98.550895 -110.769551 
L 98.851065 -111.540348 
L 99.151236 -113.659805 
L 99.451407 -110.015538 
L 99.751578 -113.302196 
L 100.051749 -114.581432 
L 100.35192 -113.320941 
L 100.652091 -111.08187 
L 100.952261 -111.325113 
L 101.252432 -110.656107 
L 101.552603 -110.066235 
L 101.852774 -109.850848 
L 102.152945 -107.712128 
L 102.453116 -105.885862 
L 102.753287 -105.510438 
L 103.053457 -104.57609 
L 103.353628 -103.274177 
L 103.653799 -102.174196 
L 103.95397 -101.85382 
L 104.254141 -101.169228 
L 104.554312 -101.670143 
L 104.854483 -101.429729 
L 105.154653 -100.149152 
L 105.454824 -101.314388 
L 105.754995 -100.09146 
L 106.055166 -101.658069 
L 106.355337 -100.674108 
L 106.655508 -101.689801 
L 106.955679 -102.950326 
L 107.255849 -104.67748 
L 107.55602 -106.531997 
L 107.856191 -107.867278 
L 108.156362 -108.093221 
L 108.456533 -107.31465 
L 108.756704 -108.342676 
L 109.056875 -107.78589 
L 109.357045 -109.762966 
L 109.657216 -108.617206 
L 109.957387 -111.873984 
L 110.257558 -111.20923 
L 110.557729 -113.06297 
L 110.8579 -114.819794 
L 111.158071 -116.609856 
L 111.458241 -117.211907 
L 111.758412 -116.976513 
L 112.058583 -119.858623 
L 112.358754 -119.969859 
L 112.658925 -120.191964 
L 112.959096 -119.410606 
L 113.259267 -119.778015 
L 113.559437 -119.509752 
L 113.859608 -118.581052 
L 114.159779 -115.692907 
L 114.45995 -115.460575 
L 114.760121 -113.768368 
L 115.060292 -114.407569 
L 115.360463 -112.280782 
L 115.660633 -111.546643 
L 115.960804 -111.671735 
L 116.260975 -110.744773 
L 116.561146 -107.944692 
L 116.861317 -107.762379 
L 117.161488 -106.293775 
L 117.461659 -107.254119 
L 117.761829 -105.57705 
L 118.062 -103.871726 
L 118.362171 -104.380522 
L 118.662342 -104.154484 
L 118.962513 -102.625892 
L 119.262684 -102.019219 
L 119.562855 -100.829542 
L 119.863025 -98.946973 
L 120.163196 -98.373889 
L 120.463367 -96.197381 
L 120.763538 -94.36 
L 121.063709 -93.094209 
L 121.36388 -92.237049 
L 121.664051 -91.241686 
L 121.964221 -91.357318 
L 122.264392 -90.70274 
L 122.564563 -91.26167 
L 122.864734 -91.066324 
L 123.164905 -92.616327 
L 123.465076 -89.785211 
L 123.765247 -92.362026 
L 124.065417 -91.894269 
L 124.365588 -93.250474 
L 124.665759 -91.814615 
L 124.96593 -91.56953 
L 125.266101 -90.619586 
L 125.566272 -91.32138 
L 125.866443 -88.636992 
L 126.166613 -86.742063 
L 126.466784 -86.652719 
L 126.766955 -86.000242 
L 127.067126 -84.790915 
L 127.367297 -84.020767 
L 127.667468 -83.189526 
L 127.967639 -82.131763 
L 128.267809 -80.859821 
L 128.56798 -78.672504 
L 128.868151 -80.978091 
L 129.168322 -78.928568 
L 129.468493 -79.199473 
L 129.768664 -79.891801 
L 130.068835 -79.445094 
L 130.369006 -80.25236 
L 130.669176 -80.82009 
L 130.969347 -78.231015 
L 131.269518 -78.578632 
L 131.569689 -79.778808 
L 131.86986 -79.901978 
L 132.170031 -80.283005 
L 132.470202 -80.480159 
L 132.770372 -80.937145 
L 133.070543 -79.6578 
L 133.370714 -81.451063 
L 133.670885 -80.403857 
L 133.971056 -79.388045 
L 134.271227 -78.290957 
L 134.571398 -78.143853 
L 134.871568 -77.204117 
L 135.171739 -79.084432 
L 135.47191 -80.150944 
L 135.772081 -78.348034 
L 136.072252 -82.038147 
L 136.372423 -82.286962 
L 136.672594 -85.254637 
L 136.972764 -86.949314 
L 137.272935 -88.123899 
L 137.573106 -90.262433 
L 137.873277 -92.155536 
L 138.173448 -94.302698 
L 138.473619 -95.392668 
L 138.77379 -97.14961 
L 139.07396 -101.79814 
L 139.374131 -101.611458 
L 139.674302 -104.960467 
L 139.974473 -105.247079 
L 140.274644 -107.236853 
L 140.574815 -110.280673 
L 140.874986 -109.589766 
L 141.175156 -112.641851 
L 141.475327 -111.03829 
L 141.775498 -111.125707 
L 142.075669 -110.615824 
L 142.37584 -110.956581 
L 142.676011 -111.442862 
L 142.976182 -110.390177 
L 143.276352 -110.004362 
L 143.576523 -109.217626 
L 143.876694 -107.767164 
L 144.176865 -104.870662 
L 144.477036 -107.398608 
L 144.777207 -105.885251 
L 145.077378 -101.967385 
L 145.377548 -100.379119 
L 145.677719 -98.616345 
L 145.97789 -96.888901 
L 146.278061 -92.621046 
L 146.578232 -90.989672 
L 146.878403 -86.61552 
L 147.178574 -83.838067 
L 147.478744 -81.949123 
L 147.778915 -78.008243 
L 148.079086 -74.751133 
L 148.379257 -72.146042 
L 148.679428 -68.324238 
L 148.979599 -67.341812 
L 149.27977 -63.750764 
L 149.57994 -61.71863 
L 149.880111 -59.477817 
L 150.180282 -55.868757 
L 150.480453 -55.389478 
L 150.780624 -53.702642 
L 151.080795 -53.036382 
L 151.380966 -51.509613 
L 151.681136 -51.352809 
L 151.981307 -49.398833 
L 152.281478 -48.70744 
L 152.581649 -48.771841 
L 152.88182 -48.571621 
L 153.181991 -48.895043 
L 153.482162 -48.098446 
L 153.782332 -47.194547 
L 154.082503 -47.693041 
L 154.382674 -47.178944 
L 154.682845 -46.455147 
L 154.983016 -46.569415 
L 155.283187 -45.61875 
L 155.583358 -45.694289 
L 155.883528 -46.851052 
L 156.183699 -47.689728 
L 156.48387 -47.427948 
L 156.784041 -48.814064 
L 157.084212 -49.835644 
L 157.384383 -49.583185 
L 157.684554 -49.709279 
L 157.984724 -51.669485 
L 158.284895 -51.83994 
L 158.585066 -51.523453 
L 158.885237 -51.947966 
L 159.185408 -51.075311 
L 159.485579 -49.772153 
L 159.78575 -52.100107 
L 160.08592 -49.998547 
L 160.386091 -50.674703 
L 160.686262 -50.297126 
L 160.986433 -50.812414 
L 161.286604 -50.974905 
L 161.586775 -49.951025 
L 161.886946 -50.999913 
L 162.187116 -49.848817 
L 162.487287 -49.217002 
L 162.787458 -49.457126 
L 163.087629 -49.357814 
L 163.3878 -49.503177 
L 163.687971 -49.791185 
L 163.988142 -49.178608 
L 164.288312 -47.504881 
L 164.588483 -47.011842 
L 164.888654 -46.53295 
L 165.188825 -45.797863 
L 165.488996 -46.663236 
L 165.789167 -46.998907 
L 166.089338 -46.927818 
L 166.389508 -44.810931 
L 166.689679 -43.815262 
L 166.98985 -44.808127 
L 167.290021 -45.741104 
L 167.590192 -45.006646 
L 167.890363 -44.543832 
L 168.190534 -45.090605 
L 168.490704 -44.156984 
L 168.790875 -44.92654 
L 169.091046 -44.885748 
L 169.391217 -45.38025 
L 169.691388 -44.247301 
L 169.991559 -45.120365 
L 170.29173 -44.269998 
L 170.5919 -44.686848 
L 170.892071 -46.161654 
L 171.192242 -45.694357 
L 171.492413 -45.144173 
L 171.792584 -44.80927 
L 172.092755 -44.738765 
L 172.392926 -45.570473 
L 172.693096 -43.902458 
L 172.993267 -44.831587 
L 173.293438 -44.816949 
L 173.593609 -44.631251 
L 173.89378 -43.620918 
L 174.193951 -43.93814 
L 174.494122 -43.469071 
L 174.794292 -44.243259 
L 175.094463 -45.340836 
L 175.394634 -44.438285 
L 175.694805 -44.621569 
L 175.994976 -45.550829 
L 176.295147 -45.946131 
L 176.595318 -45.192914 
L 176.895488 -46.334756 
L 177.195659 -46.425023 
L 177.49583 -46.818164 
L 177.796001 -47.111185 
L 178.096172 -45.778051 
L 178.396343 -46.029106 
L 178.696514 -45.905117 
L 178.996684 -45.799643 
L 179.296855 -44.825091 
L 179.597026 -44.820891 
L 179.897197 -44.795874 
L 180.197368 -44.151308 
L 180.497539 -44.953166 
L 180.79771 -45.698211 
L 181.09788 -45.869299 
L 181.398051 -47.320788 
L 181.698222 -47.159307 
L 181.998393 -47.398066 
L 182.298564 -47.611027 
L 182.598735 -48.411649 
L 182.898906 -49.462435 
L 183.199077 -49.413393 
L 183.499247 -50.053666 
L 183.799418 -50.028788 
L 184.099589 -50.859562 
L 184.39976 -49.402401 
L 184.699931 -49.97886 
L 185.000102 -49.441694 
L 185.300273 -49.037565 
L 185.600443 -48.873387 
L 185.900614 -49.484208 
L 186.200785 -49.342055 
L 186.500956 -50.18257 
L 186.801127 -50.369225 
L 187.101298 -51.509637 
L 187.401469 -52.001513 
L 187.701639 -52.56114 
L 188.00181 -52.832484 
L 188.301981 -53.982148 
L 188.602152 -54.601943 
L 188.902323 -55.143336 
L 189.202494 -54.789164 
L 189.502665 -54.626651 
L 189.802835 -55.085532 
L 190.103006 -54.831264 
L 190.403177 -55.028701 
L 190.703348 -54.629203 
L 191.003519 -54.495529 
L 191.30369 -54.021323 
L 191.603861 -53.932851 
L 191.904031 -53.04887 
L 192.204202 -52.979916 
L 192.504373 -52.699504 
L 192.804544 -51.030093 
L 193.104715 -51.896941 
L 193.404886 -51.200661 
L 193.705057 -52.019817 
L 194.005227 -52.632993 
L 194.305398 -54.209581 
L 194.605569 -53.562729 
L 194.90574 -54.125829 
L 195.205911 -54.562693 
L 195.506082 -54.716874 
L 195.806253 -55.188878 
L 196.106423 -54.944278 
L 196.406594 -55.294833 
L 196.706765 -55.695597 
L 197.006936 -55.731944 
L 197.307107 -55.300487 
L 197.607278 -54.188794 
L 197.907449 -55.319573 
L 198.207619 -55.142699 
L 198.50779 -54.499325 
L 198.807961 -54.556153 
L 199.108132 -55.504651 
L 199.408303 -53.88934 
L 199.708474 -53.862422 
L 200.008645 -53.463151 
L 200.308815 -54.657489 
L 200.608986 -53.605391 
L 200.909157 -55.163545 
L 201.209328 -56.333667 
L 201.509499 -56.506142 
L 201.80967 -56.687236 
L 202.109841 -56.424804 
L 202.410011 -56.181719 
L 202.710182 -57.070162 
L 203.010353 -56.86866 
L 203.310524 -55.80155 
L 203.610695 -55.308026 
L 203.910866 -56.802913 
L 204.211037 -55.851322 
L 204.511207 -55.123628 
L 204.811378 -55.146512 
L 205.111549 -54.873544 
L 205.41172 -54.484966 
L 205.711891 -54.031827 
L 206.012062 -53.975921 
L 206.312233 -54.7395 
L 206.612403 -54.804989 
L 206.912574 -55.070393 
L 207.212745 -56.281845 
L 207.512916 -56.224635 
L 207.813087 -56.913895 
L 208.113258 -56.61184 
L 208.413429 -57.407329 
L 208.713599 -57.057726 
L 209.01377 -57.647547 
L 209.313941 -57.341287 
L 209.614112 -57.641083 
L 209.914283 -57.511244 
L 210.214454 -57.170327 
L 210.514625 -57.353562 
L 210.814795 -57.030231 
L 211.114966 -56.755825 
L 211.415137 -57.003912 
L 211.715308 -56.948847 
L 212.015479 -55.827156 
L 212.31565 -55.641093 
L 212.615821 -55.422388 
L 212.915991 -55.390128 
L 213.216162 -55.518132 
L 213.516333 -56.611545 
L 213.816504 -56.889181 
L 214.116675 -56.763138 
L 214.416846 -56.572157 
L 214.717017 -56.558252 
L 215.017187 -56.007753 
L 215.317358 -55.875052 
L 215.617529 -55.93867 
L 215.9177 -53.617037 
L 216.217871 -55.15357 
L 216.518042 -54.004205 
L 216.818213 -52.457926 
L 217.118383 -52.243943 
L 217.418554 -51.741246 
L 217.718725 -50.835164 
L 218.018896 -51.875625 
L 218.018896 -78.342735 
L 218.018896 -78.342735 
L 217.718725 -75.647804 
L 217.418554 -74.807857 
L 217.118383 -74.974995 
L 216.818213 -74.148866 
L 216.518042 -74.865326 
L 216.217871 -75.924018 
L 215.9177 -75.674193 
L 215.617529 -74.610735 
L 215.317358 -76.230197 
L 215.017187 -76.059626 
L 214.717017 -76.140042 
L 214.416846 -76.44509 
L 214.116675 -76.698245 
L 213.816504 -76.60385 
L 213.516333 -76.35855 
L 213.216162 -75.857157 
L 212.915991 -76.279951 
L 212.615821 -76.591996 
L 212.31565 -76.097786 
L 212.015479 -76.998959 
L 211.715308 -77.741407 
L 211.415137 -78.340256 
L 211.114966 -78.940976 
L 210.814795 -78.525896 
L 210.514625 -79.378989 
L 210.214454 -79.943739 
L 209.914283 -81.225798 
L 209.614112 -81.779453 
L 209.313941 -81.659093 
L 209.01377 -81.958998 
L 208.713599 -81.797775 
L 208.413429 -82.438803 
L 208.113258 -81.720023 
L 207.813087 -80.519864 
L 207.512916 -80.400677 
L 207.212745 -80.982368 
L 206.912574 -78.895531 
L 206.612403 -78.46951 
L 206.312233 -78.402298 
L 206.012062 -77.285624 
L 205.711891 -77.080491 
L 205.41172 -77.418314 
L 205.111549 -78.639725 
L 204.811378 -78.985223 
L 204.511207 -79.03055 
L 204.211037 -80.519313 
L 203.910866 -79.999445 
L 203.610695 -80.00363 
L 203.310524 -80.948005 
L 203.010353 -81.747022 
L 202.710182 -81.203507 
L 202.410011 -81.222992 
L 202.109841 -80.540131 
L 201.80967 -80.552916 
L 201.509499 -79.988196 
L 201.209328 -79.265351 
L 200.909157 -79.579807 
L 200.608986 -77.33457 
L 200.308815 -77.114045 
L 200.008645 -77.955745 
L 199.708474 -78.981038 
L 199.408303 -78.361099 
L 199.108132 -77.656339 
L 198.807961 -77.145789 
L 198.50779 -77.303903 
L 198.207619 -77.226623 
L 197.907449 -77.972877 
L 197.607278 -78.061215 
L 197.307107 -77.9656 
L 197.006936 -78.04245 
L 196.706765 -77.875938 
L 196.406594 -78.368771 
L 196.106423 -76.366232 
L 195.806253 -77.927843 
L 195.506082 -77.033971 
L 195.205911 -76.412446 
L 194.90574 -76.511994 
L 194.605569 -74.898722 
L 194.305398 -74.742947 
L 194.005227 -73.437794 
L 193.705057 -72.922631 
L 193.404886 -72.184727 
L 193.104715 -73.403915 
L 192.804544 -73.160113 
L 192.504373 -73.683736 
L 192.204202 -73.532263 
L 191.904031 -74.633256 
L 191.603861 -74.672985 
L 191.30369 -76.255797 
L 191.003519 -76.77822 
L 190.703348 -76.387862 
L 190.403177 -77.22604 
L 190.103006 -77.856897 
L 189.802835 -78.530245 
L 189.502665 -78.311327 
L 189.202494 -78.922742 
L 188.902323 -78.110961 
L 188.602152 -79.078896 
L 188.301981 -77.762149 
L 188.00181 -77.357247 
L 187.701639 -75.908872 
L 187.401469 -76.37468 
L 187.101298 -75.82744 
L 186.801127 -73.819485 
L 186.500956 -72.83918 
L 186.200785 -72.941423 
L 185.900614 -72.94057 
L 185.600443 -71.778983 
L 185.300273 -73.202776 
L 185.000102 -72.065528 
L 184.699931 -72.686248 
L 184.39976 -72.863445 
L 184.099589 -72.173563 
L 183.799418 -70.583365 
L 183.499247 -71.40776 
L 183.199077 -70.183029 
L 182.898906 -68.986582 
L 182.598735 -68.176703 
L 182.298564 -67.957345 
L 181.998393 -66.547175 
L 181.698222 -66.374828 
L 181.398051 -65.41969 
L 181.09788 -65.169374 
L 180.79771 -64.94455 
L 180.497539 -65.361361 
L 180.197368 -65.170141 
L 179.897197 -64.539583 
L 179.597026 -64.892876 
L 179.296855 -65.344854 
L 178.996684 -65.315725 
L 178.696514 -65.623603 
L 178.396343 -66.714594 
L 178.096172 -67.080682 
L 177.796001 -67.975023 
L 177.49583 -68.514518 
L 177.195659 -69.478451 
L 176.895488 -68.636318 
L 176.595318 -69.479936 
L 176.295147 -68.838877 
L 175.994976 -69.643789 
L 175.694805 -69.046351 
L 175.394634 -69.168604 
L 175.094463 -68.900368 
L 174.794292 -67.495395 
L 174.494122 -68.418784 
L 174.193951 -68.252308 
L 173.89378 -68.867431 
L 173.593609 -68.746589 
L 173.293438 -69.900355 
L 172.993267 -68.201887 
L 172.693096 -70.802411 
L 172.392926 -71.552159 
L 172.092755 -72.337056 
L 171.792584 -71.101896 
L 171.492413 -70.71822 
L 171.192242 -73.303214 
L 170.892071 -71.818051 
L 170.5919 -72.69337 
L 170.29173 -73.753575 
L 169.991559 -74.773736 
L 169.691388 -76.198051 
L 169.391217 -75.133163 
L 169.091046 -77.0678 
L 168.790875 -76.657826 
L 168.490704 -77.071275 
L 168.190534 -80.179328 
L 167.890363 -79.532722 
L 167.590192 -80.141439 
L 167.290021 -80.378518 
L 166.98985 -81.3406 
L 166.689679 -82.188973 
L 166.389508 -82.929959 
L 166.089338 -84.997041 
L 165.789167 -86.034584 
L 165.488996 -85.596354 
L 165.188825 -87.559541 
L 164.888654 -88.298221 
L 164.588483 -87.994033 
L 164.288312 -87.12728 
L 163.988142 -87.537802 
L 163.687971 -86.041201 
L 163.3878 -86.63513 
L 163.087629 -83.796776 
L 162.787458 -84.996982 
L 162.487287 -84.08198 
L 162.187116 -82.951162 
L 161.886946 -83.43101 
L 161.586775 -83.773252 
L 161.286604 -84.137985 
L 160.986433 -82.40787 
L 160.686262 -80.892142 
L 160.386091 -81.764475 
L 160.08592 -80.594659 
L 159.78575 -81.551978 
L 159.485579 -80.725434 
L 159.185408 -81.962736 
L 158.885237 -80.895094 
L 158.585066 -80.881204 
L 158.284895 -80.450615 
L 157.984724 -78.99294 
L 157.684554 -78.318482 
L 157.384383 -77.314421 
L 157.084212 -75.737204 
L 156.784041 -73.813669 
L 156.48387 -73.489024 
L 156.183699 -73.438251 
L 155.883528 -72.27517 
L 155.583358 -71.760497 
L 155.283187 -70.935361 
L 154.983016 -71.370889 
L 154.682845 -71.692792 
L 154.382674 -71.493255 
L 154.082503 -71.94376 
L 153.782332 -73.31421 
L 153.482162 -73.480975 
L 153.181991 -73.579028 
L 152.88182 -74.227664 
L 152.581649 -74.157064 
L 152.281478 -74.148088 
L 151.981307 -74.014801 
L 151.681136 -75.682367 
L 151.380966 -76.55134 
L 151.080795 -77.171607 
L 150.780624 -80.202169 
L 150.480453 -82.727481 
L 150.180282 -83.36772 
L 149.880111 -89.408676 
L 149.57994 -93.561855 
L 149.27977 -98.616904 
L 148.979599 -102.042838 
L 148.679428 -104.487187 
L 148.379257 -108.820612 
L 148.079086 -113.868203 
L 147.778915 -118.503212 
L 147.478744 -122.089008 
L 147.178574 -128.949906 
L 146.878403 -133.437641 
L 146.578232 -136.402678 
L 146.278061 -140.711181 
L 145.97789 -142.316843 
L 145.677719 -146.058968 
L 145.377548 -147.835113 
L 145.077378 -151.224393 
L 144.777207 -152.268411 
L 144.477036 -152.837125 
L 144.176865 -153.670427 
L 143.876694 -153.909921 
L 143.576523 -157.742898 
L 143.276352 -156.818061 
L 142.976182 -156.063847 
L 142.676011 -157.002026 
L 142.37584 -156.976505 
L 142.075669 -156.608071 
L 141.775498 -154.74066 
L 141.475327 -156.073257 
L 141.175156 -153.439917 
L 140.874986 -151.842223 
L 140.574815 -150.80616 
L 140.274644 -149.794288 
L 139.974473 -146.920857 
L 139.674302 -145.710277 
L 139.374131 -144.450358 
L 139.07396 -140.505133 
L 138.77379 -139.438975 
L 138.473619 -136.146443 
L 138.173448 -133.797915 
L 137.873277 -131.780533 
L 137.573106 -129.190002 
L 137.272935 -125.866158 
L 136.972764 -124.474506 
L 136.672594 -122.171608 
L 136.372423 -122.88521 
L 136.072252 -119.299676 
L 135.772081 -117.881761 
L 135.47191 -117.230994 
L 135.171739 -117.219629 
L 134.871568 -117.41518 
L 134.571398 -117.11038 
L 134.271227 -118.11715 
L 133.971056 -118.687047 
L 133.670885 -120.365542 
L 133.370714 -118.930549 
L 133.070543 -119.273341 
L 132.770372 -119.735249 
L 132.470202 -120.026406 
L 132.170031 -118.103436 
L 131.86986 -119.072519 
L 131.569689 -120.119732 
L 131.269518 -118.622147 
L 130.969347 -116.755703 
L 130.669176 -116.419896 
L 130.369006 -117.635257 
L 130.068835 -116.79204 
L 129.768664 -116.575703 
L 129.468493 -115.524847 
L 129.168322 -116.596662 
L 128.868151 -115.544891 
L 128.56798 -115.845738 
L 128.267809 -116.582614 
L 127.967639 -119.291377 
L 127.667468 -117.028479 
L 127.367297 -119.827446 
L 127.067126 -121.000318 
L 126.766955 -121.629156 
L 126.466784 -123.288057 
L 126.166613 -125.819445 
L 125.866443 -125.241386 
L 125.566272 -127.563059 
L 125.266101 -128.549849 
L 124.96593 -129.291449 
L 124.665759 -129.650268 
L 124.365588 -132.059472 
L 124.065417 -131.494506 
L 123.765247 -131.02288 
L 123.465076 -132.528926 
L 123.164905 -133.09438 
L 122.864734 -133.73113 
L 122.564563 -131.973026 
L 122.264392 -130.813099 
L 121.964221 -131.378878 
L 121.664051 -130.147626 
L 121.36388 -131.544435 
L 121.063709 -133.495156 
L 120.763538 -133.493768 
L 120.463367 -134.702849 
L 120.163196 -135.032348 
L 119.863025 -139.061577 
L 119.562855 -139.316179 
L 119.262684 -138.271874 
L 118.962513 -140.204535 
L 118.662342 -141.135323 
L 118.362171 -141.203072 
L 118.062 -142.474805 
L 117.761829 -141.944014 
L 117.461659 -143.868811 
L 117.161488 -144.006819 
L 116.861317 -145.949561 
L 116.561146 -145.590778 
L 116.260975 -146.258537 
L 115.960804 -147.360393 
L 115.660633 -148.071675 
L 115.360463 -148.625547 
L 115.060292 -149.3515 
L 114.760121 -151.090074 
L 114.45995 -152.291747 
L 114.159779 -152.302533 
L 113.859608 -154.647933 
L 113.559437 -157.619891 
L 113.259267 -158.437995 
L 112.959096 -157.415047 
L 112.658925 -157.345727 
L 112.358754 -157.46214 
L 112.058583 -156.397867 
L 111.758412 -155.146392 
L 111.458241 -154.809371 
L 111.158071 -154.333739 
L 110.8579 -153.156962 
L 110.557729 -149.902595 
L 110.257558 -147.930555 
L 109.957387 -149.378248 
L 109.657216 -150.013486 
L 109.357045 -149.332447 
L 109.056875 -148.353411 
L 108.756704 -147.626513 
L 108.456533 -146.622653 
L 108.156362 -147.043365 
L 107.856191 -145.59223 
L 107.55602 -145.191666 
L 107.255849 -142.898215 
L 106.955679 -142.779224 
L 106.655508 -141.292678 
L 106.355337 -140.644463 
L 106.055166 -138.759726 
L 105.754995 -139.724703 
L 105.454824 -138.145121 
L 105.154653 -137.809782 
L 104.854483 -138.466048 
L 104.554312 -139.960044 
L 104.254141 -139.342278 
L 103.95397 -140.956646 
L 103.653799 -142.482524 
L 103.353628 -140.179241 
L 103.053457 -141.090817 
L 102.753287 -143.767698 
L 102.453116 -144.963288 
L 102.152945 -146.393961 
L 101.852774 -145.827781 
L 101.552603 -147.965049 
L 101.252432 -149.490412 
L 100.952261 -148.963171 
L 100.652091 -150.846618 
L 100.35192 -151.681186 
L 100.051749 -151.552142 
L 99.751578 -150.178516 
L 99.451407 -152.900433 
L 99.151236 -150.204858 
L 98.851065 -151.152865 
L 98.550895 -152.128363 
L 98.250724 -151.577051 
L 97.950553 -151.779543 
L 97.650382 -151.789102 
L 97.350211 -153.090395 
L 97.05004 -153.445768 
L 96.749869 -152.561088 
L 96.449699 -151.026259 
L 96.149528 -149.25028 
L 95.849357 -149.296666 
L 95.549186 -148.026867 
L 95.249015 -146.27363 
L 94.948844 -146.049544 
L 94.648673 -145.655619 
L 94.348503 -145.447132 
L 94.048332 -145.508671 
L 93.748161 -143.64192 
L 93.44799 -142.729884 
L 93.147819 -142.032342 
L 92.847648 -140.905202 
L 92.547477 -139.363777 
L 92.247307 -139.482953 
L 91.947136 -139.189405 
L 91.646965 -138.733176 
L 91.346794 -137.6582 
L 91.046623 -136.634933 
L 90.746452 -135.593702 
L 90.446281 -135.318221 
L 90.146111 -134.399283 
L 89.84594 -134.178149 
L 89.545769 -132.843877 
L 89.245598 -132.639085 
L 88.945427 -130.995134 
L 88.645256 -128.957144 
L 88.345085 -128.637286 
L 88.044915 -129.065061 
L 87.744744 -127.94314 
L 87.444573 -127.138814 
L 87.144402 -127.253588 
L 86.844231 -128.567929 
L 86.54406 -126.267658 
L 86.243889 -123.904839 
L 85.943719 -124.077988 
L 85.643548 -124.777549 
L 85.343377 -121.27416 
L 85.043206 -121.213197 
L 84.743035 -120.872389 
L 84.442864 -118.728035 
L 84.142693 -118.422208 
L 83.842523 -119.721909 
L 83.542352 -117.518425 
L 83.242181 -117.77736 
L 82.94201 -116.798823 
L 82.641839 -118.287673 
L 82.341668 -117.314751 
L 82.041497 -118.543232 
L 81.741327 -117.274711 
L 81.441156 -117.864172 
L 81.140985 -120.638239 
L 80.840814 -118.019674 
L 80.540643 -118.513117 
L 80.240472 -119.867713 
L 79.940301 -119.298813 
L 79.640131 -118.859194 
L 79.33996 -120.178681 
L 79.039789 -120.548503 
L 78.739618 -120.563645 
L 78.439447 -122.768715 
L 78.139276 -123.293172 
L 77.839105 -122.490564 
L 77.538935 -124.816561 
L 77.238764 -127.283241 
L 76.938593 -127.128088 
L 76.638422 -130.195769 
L 76.338251 -131.395897 
L 76.03808 -132.289788 
L 75.737909 -133.533563 
L 75.437738 -134.814955 
L 75.137568 -135.278679 
L 74.837397 -133.854313 
L 74.537226 -135.463003 
L 74.237055 -134.743911 
L 73.936884 -136.969272 
L 73.636713 -137.488762 
L 73.336542 -139.698323 
L 73.036372 -139.742966 
L 72.736201 -140.941847 
L 72.43603 -141.19143 
L 72.135859 -143.588969 
L 71.835688 -145.448727 
L 71.535517 -144.568738 
L 71.235346 -146.329801 
L 70.935176 -146.866013 
L 70.635005 -147.976238 
L 70.334834 -151.036729 
L 70.034663 -148.626473 
L 69.734492 -150.083264 
L 69.434321 -151.774041 
L 69.13415 -151.023744 
L 68.83398 -150.89042 
L 68.533809 -150.595379 
L 68.233638 -146.422245 
z
" style="stroke: #52296c; stroke-opacity: 0.2; stroke-width: 0.24"/>
    </defs>
    <g clip-path="url(#p64bc17e7f9)">
     <use xlink:href="#m51199ccbb9" x="0" y="171.386442" style="fill: #52296c; fill-opacity: 0.2; stroke: #52296c; stroke-opacity: 0.2; stroke-width: 0.24"/>
    </g>
   </g>
   <g id="matplotlib.axis_1">
    <g id="xtick_1">
     <g id="line2d_2">
      <defs>
       <path id="m52ca53fad6" d="M 0 0 
L 0 3.5 
" style="stroke: #000000; stroke-width: 0.8"/>
      </defs>
      <g>
       <use xlink:href="#m52ca53fad6" x="83.212164" y="133.665817" style="stroke: #000000; stroke-width: 0.8"/>
      </g>
     </g>
     <g id="text_1">
      <text style="font: 8px 'DejaVu Serif', 'Bitstream Vera Serif', 'Computer Modern Roman', 'New Century Schoolbook', 'Century Schoolbook L', 'Utopia', 'ITC Bookman', 'Bookman', 'Nimbus Roman No9 L', 'Times New Roman', 'Times', 'Palatino', 'Charter', serif; text-anchor: middle" x="83.212164" y="148.844567" transform="rotate(-0 83.212164 148.844567)">−0.4</text>
     </g>
    </g>
    <g id="xtick_2">
     <g id="line2d_3">
      <g>
       <use xlink:href="#m52ca53fad6" x="113.169215" y="133.665817" style="stroke: #000000; stroke-width: 0.8"/>
      </g>
     </g>
     <g id="text_2">
      <text style="font: 8px 'DejaVu Serif', 'Bitstream Vera Serif', 'Computer Modern Roman', 'New Century Schoolbook', 'Century Schoolbook L', 'Utopia', 'ITC Bookman', 'Bookman', 'Nimbus Roman No9 L', 'Times New Roman', 'Times', 'Palatino', 'Charter', serif; text-anchor: middle" x="113.169215" y="148.844567" transform="rotate(-0 113.169215 148.844567)">−0.2</text>
     </g>
    </g>
    <g id="xtick_3">
     <g id="line2d_4">
      <g>
       <use xlink:href="#m52ca53fad6" x="143.126267" y="133.665817" style="stroke: #000000; stroke-width: 0.8"/>
      </g>
     </g>
     <g id="text_3">
      <text style="font: 8px 'DejaVu Serif', 'Bitstream Vera Serif', 'Computer Modern Roman', 'New Century Schoolbook', 'Century Schoolbook L', 'Utopia', 'ITC Bookman', 'Bookman', 'Nimbus Roman No9 L', 'Times New Roman', 'Times', 'Palatino', 'Charter', serif; text-anchor: middle" x="143.126267" y="148.844567" transform="rotate(-0 143.126267 148.844567)">0.0</text>
     </g>
    </g>
    <g id="xtick_4">
     <g id="line2d_5">
      <g>
       <use xlink:href="#m52ca53fad6" x="173.083319" y="133.665817" style="stroke: #000000; stroke-width: 0.8"/>
      </g>
     </g>
     <g id="text_4">
      <text style="font: 8px 'DejaVu Serif', 'Bitstream Vera Serif', 'Computer Modern Roman', 'New Century Schoolbook', 'Century Schoolbook L', 'Utopia', 'ITC Bookman', 'Bookman', 'Nimbus Roman No9 L', 'Times New Roman', 'Times', 'Palatino', 'Charter', serif; text-anchor: middle" x="173.083319" y="148.844567" transform="rotate(-0 173.083319 148.844567)">0.2</text>
     </g>
    </g>
    <g id="xtick_5">
     <g id="line2d_6">
      <g>
       <use xlink:href="#m52ca53fad6" x="203.04037" y="133.665817" style="stroke: #000000; stroke-width: 0.8"/>
      </g>
     </g>
     <g id="text_5">
      <text style="font: 8px 'DejaVu Serif', 'Bitstream Vera Serif', 'Computer Modern Roman', 'New Century Schoolbook', 'Century Schoolbook L', 'Utopia', 'ITC Bookman', 'Bookman', 'Nimbus Roman No9 L', 'Times New Roman', 'Times', 'Palatino', 'Charter', serif; text-anchor: middle" x="203.04037" y="148.844567" transform="rotate(-0 203.04037 148.844567)">0.4</text>
     </g>
    </g>
    <g id="text_6">
     <text style="font: 10px 'DejaVu Serif', 'Bitstream Vera Serif', 'Computer Modern Roman', 'New Century Schoolbook', 'Century Schoolbook L', 'Utopia', 'ITC Bookman', 'Bookman', 'Nimbus Roman No9 L', 'Times New Roman', 'Times', 'Palatino', 'Charter', serif; text-anchor: middle" x="143.126267" y="162.106754" transform="rotate(-0 143.126267 162.106754)">From IED start (s)</text>
    </g>
   </g>
   <g id="matplotlib.axis_2">
    <g id="ytick_1">
     <g id="line2d_7">
      <defs>
       <path id="mbb8e1064f5" d="M 0 0 
L -3.5 0 
" style="stroke: #000000; stroke-width: 0.8"/>
      </defs>
      <g>
       <use xlink:href="#mbb8e1064f5" x="60.744375" y="115.81419" style="stroke: #000000; stroke-width: 0.8"/>
      </g>
     </g>
     <g id="text_7">
      <text style="font: 8px 'DejaVu Serif', 'Bitstream Vera Serif', 'Computer Modern Roman', 'New Century Schoolbook', 'Century Schoolbook L', 'Utopia', 'ITC Bookman', 'Bookman', 'Nimbus Roman No9 L', 'Times New Roman', 'Times', 'Palatino', 'Charter', serif; text-anchor: end" x="51.644375" y="118.853565" transform="rotate(-0 51.644375 118.853565)">−0.2</text>
     </g>
    </g>
    <g id="ytick_2">
     <g id="line2d_8">
      <g>
       <use xlink:href="#mbb8e1064f5" x="60.744375" y="97.541387" style="stroke: #000000; stroke-width: 0.8"/>
      </g>
     </g>
     <g id="text_8">
      <text style="font: 8px 'DejaVu Serif', 'Bitstream Vera Serif', 'Computer Modern Roman', 'New Century Schoolbook', 'Century Schoolbook L', 'Utopia', 'ITC Bookman', 'Bookman', 'Nimbus Roman No9 L', 'Times New Roman', 'Times', 'Palatino', 'Charter', serif; text-anchor: end" x="51.644375" y="100.580762" transform="rotate(-0 51.644375 100.580762)">−0.1</text>
     </g>
    </g>
    <g id="ytick_3">
     <g id="line2d_9">
      <g>
       <use xlink:href="#mbb8e1064f5" x="60.744375" y="79.268584" style="stroke: #000000; stroke-width: 0.8"/>
      </g>
     </g>
     <g id="text_9">
      <text style="font: 8px 'DejaVu Serif', 'Bitstream Vera Serif', 'Computer Modern Roman', 'New Century Schoolbook', 'Century Schoolbook L', 'Utopia', 'ITC Bookman', 'Bookman', 'Nimbus Roman No9 L', 'Times New Roman', 'Times', 'Palatino', 'Charter', serif; text-anchor: end" x="51.644375" y="82.307959" transform="rotate(-0 51.644375 82.307959)">0.0</text>
     </g>
    </g>
    <g id="ytick_4">
     <g id="line2d_10">
      <g>
       <use xlink:href="#mbb8e1064f5" x="60.744375" y="60.995781" style="stroke: #000000; stroke-width: 0.8"/>
      </g>
     </g>
     <g id="text_10">
      <text style="font: 8px 'DejaVu Serif', 'Bitstream Vera Serif', 'Computer Modern Roman', 'New Century Schoolbook', 'Century Schoolbook L', 'Utopia', 'ITC Bookman', 'Bookman', 'Nimbus Roman No9 L', 'Times New Roman', 'Times', 'Palatino', 'Charter', serif; text-anchor: end" x="51.644375" y="64.035156" transform="rotate(-0 51.644375 64.035156)">0.1</text>
     </g>
    </g>
    <g id="ytick_5">
     <g id="line2d_11">
      <g>
       <use xlink:href="#mbb8e1064f5" x="60.744375" y="42.722978" style="stroke: #000000; stroke-width: 0.8"/>
      </g>
     </g>
     <g id="text_11">
      <text style="font: 8px 'DejaVu Serif', 'Bitstream Vera Serif', 'Computer Modern Roman', 'New Century Schoolbook', 'Century Schoolbook L', 'Utopia', 'ITC Bookman', 'Bookman', 'Nimbus Roman No9 L', 'Times New Roman', 'Times', 'Palatino', 'Charter', serif; text-anchor: end" x="51.644375" y="45.762353" transform="rotate(-0 51.644375 45.762353)">0.2</text>
     </g>
    </g>
    <g id="ytick_6">
     <g id="line2d_12">
      <g>
       <use xlink:href="#mbb8e1064f5" x="60.744375" y="24.450175" style="stroke: #000000; stroke-width: 0.8"/>
      </g>
     </g>
     <g id="text_12">
      <text style="font: 8px 'DejaVu Serif', 'Bitstream Vera Serif', 'Computer Modern Roman', 'New Century Schoolbook', 'Century Schoolbook L', 'Utopia', 'ITC Bookman', 'Bookman', 'Nimbus Roman No9 L', 'Times New Roman', 'Times', 'Palatino', 'Charter', serif; text-anchor: end" x="51.644375" y="27.48955" transform="rotate(-0 51.644375 27.48955)">0.3</text>
     </g>
    </g>
    <g id="text_13">
     <text style="font: 10px 'DejaVu Serif', 'Bitstream Vera Serif', 'Computer Modern Roman', 'New Century Schoolbook', 'Century Schoolbook L', 'Utopia', 'ITC Bookman', 'Bookman', 'Nimbus Roman No9 L', 'Times New Roman', 'Times', 'Palatino', 'Charter', serif" transform="translate(14.798437 128.063377) rotate(-90)">Assembly reactivation </text>
     <text style="font: 10px 'DejaVu Serif', 'Bitstream Vera Serif', 'Computer Modern Roman', 'New Century Schoolbook', 'Century Schoolbook L', 'Utopia', 'ITC Bookman', 'Bookman', 'Nimbus Roman No9 L', 'Times New Roman', 'Times', 'Palatino', 'Charter', serif" transform="translate(26.138438 93.972752) rotate(-90)"> (z-score)</text>
    </g>
   </g>
   <g id="line2d_13">
    <path d="M 68.233638 49.224403 
L 69.13415 46.212711 
L 69.434321 45.630031 
L 69.734492 45.41838 
L 70.034663 45.569974 
L 70.635005 46.607446 
L 71.535517 48.322347 
L 72.43603 49.38722 
L 72.736201 49.693217 
L 73.636713 52.882086 
L 74.237055 54.607701 
L 74.837397 55.433183 
L 75.437738 56.23389 
L 76.03808 57.899911 
L 76.938593 61.793379 
L 77.839105 65.64017 
L 78.439447 67.500829 
L 79.039789 68.508044 
L 79.640131 68.811146 
L 80.540643 69.111385 
L 81.441156 69.505441 
L 82.041497 69.464099 
L 82.641839 69.018535 
L 83.542352 68.317034 
L 84.142693 68.000787 
L 84.442864 67.699689 
L 84.743035 67.211033 
L 85.343377 65.617746 
L 86.243889 62.766133 
L 86.844231 61.696608 
L 88.345085 60.368246 
L 89.545769 58.216696 
L 90.446281 56.460049 
L 91.346794 54.549022 
L 92.247307 53.018975 
L 92.847648 51.33142 
L 94.348503 46.043247 
L 95.549186 43.514362 
L 96.749869 39.823332 
L 97.05004 39.390474 
L 97.350211 39.305336 
L 97.950553 39.781166 
L 98.550895 40.162076 
L 99.751578 40.199819 
L 100.35192 40.55541 
L 100.952261 41.160703 
L 101.252432 41.723917 
L 101.852774 43.710945 
L 103.053457 48.685657 
L 103.653799 50.108766 
L 104.854483 51.994569 
L 105.454824 52.570247 
L 105.754995 52.547417 
L 106.055166 52.196525 
L 106.355337 51.476339 
L 106.955679 49.115896 
L 107.856191 45.253196 
L 108.456533 43.776706 
L 109.657216 42.092509 
L 110.257558 40.407226 
L 112.058583 33.807813 
L 112.358754 33.25981 
L 112.658925 32.991885 
L 112.959096 33.044307 
L 113.259267 33.453389 
L 113.859608 35.265368 
L 115.360463 41.022903 
L 117.161488 46.630248 
L 117.761829 47.664338 
L 118.362171 48.524683 
L 118.962513 50.18945 
L 121.36388 59.43443 
L 121.964221 60.502843 
L 122.264392 60.624072 
L 122.564563 60.510655 
L 123.465076 59.755994 
L 123.765247 59.68944 
L 124.065417 59.801744 
L 124.365588 60.10082 
L 124.96593 61.227716 
L 125.566272 62.956858 
L 126.466784 66.492422 
L 127.667468 71.373404 
L 128.267809 72.916739 
L 128.868151 73.791669 
L 129.168322 73.973542 
L 129.468493 73.971723 
L 130.068835 73.496102 
L 130.969347 72.600382 
L 131.86986 72.317597 
L 133.070543 71.804163 
L 133.370714 71.90895 
L 133.971056 72.645647 
L 134.571398 73.425364 
L 134.871568 73.528937 
L 135.171739 73.350156 
L 135.47191 72.871082 
L 136.072252 71.012535 
L 136.672594 67.996527 
L 137.573106 61.942439 
L 139.674302 46.995306 
L 140.874986 40.600532 
L 141.475327 38.594312 
L 141.775498 38.124543 
L 142.075669 37.964106 
L 142.37584 38.014986 
L 142.976182 38.464499 
L 143.576523 39.419457 
L 144.176865 41.16402 
L 144.777207 43.868733 
L 145.377548 47.739497 
L 146.278061 55.764981 
L 147.178574 65.806614 
L 149.57994 94.569972 
L 150.480453 102.781947 
L 151.080795 106.497087 
L 151.681136 108.679132 
L 152.281478 109.702148 
L 153.782332 110.980009 
L 154.983016 112.932591 
L 155.283187 113.003725 
L 155.583358 112.789006 
L 156.183699 111.630637 
L 158.284895 106.141511 
L 158.585066 105.86095 
L 159.185408 105.75221 
L 159.78575 105.727267 
L 161.586775 105.170565 
L 162.487287 105.282696 
L 163.087629 104.935377 
L 163.988142 103.998512 
L 164.288312 103.870891 
L 164.588483 103.941972 
L 164.888654 104.223706 
L 165.488996 105.288101 
L 167.590192 109.747783 
L 168.490704 110.760541 
L 169.691388 111.750707 
L 172.392926 113.700077 
L 173.293438 114.835457 
L 173.89378 115.529308 
L 174.193951 115.706109 
L 174.494122 115.719468 
L 174.794292 115.570834 
L 176.595318 114.025989 
L 177.195659 114.106431 
L 177.796001 114.48086 
L 178.396343 115.136794 
L 179.597026 116.688248 
L 179.897197 116.841425 
L 180.197368 116.826311 
L 180.79771 116.348733 
L 181.698222 115.000989 
L 182.598735 113.068207 
L 183.499247 111.005711 
L 183.799418 110.584787 
L 184.099589 110.378789 
L 184.39976 110.377793 
L 185.600443 110.904961 
L 185.900614 110.739825 
L 186.500956 109.896384 
L 187.401469 107.864221 
L 188.301981 105.7318 
L 188.902323 104.972761 
L 189.202494 104.882315 
L 189.802835 105.131743 
L 190.703348 105.949624 
L 191.30369 106.712709 
L 192.804544 109.034679 
L 193.104715 109.184952 
L 193.404886 109.127262 
L 193.705057 108.864904 
L 194.305398 107.909878 
L 195.506082 105.8362 
L 196.106423 105.195192 
L 196.406594 105.070852 
L 197.006936 105.189077 
L 197.907449 105.506467 
L 200.008645 105.734422 
L 200.308815 105.585691 
L 200.909157 104.837488 
L 201.80967 103.425904 
L 202.410011 103.031237 
L 203.010353 103.042364 
L 203.610695 103.297472 
L 204.211037 103.836987 
L 205.711891 105.672707 
L 206.012062 105.689019 
L 206.312233 105.488581 
L 206.912574 104.561523 
L 208.113258 102.262412 
L 208.713599 101.722541 
L 209.01377 101.708244 
L 209.313941 101.866024 
L 209.914283 102.575173 
L 211.114966 104.171962 
L 212.615821 105.769451 
L 212.915991 105.891015 
L 213.216162 105.8484 
L 213.516333 105.628754 
L 213.816504 105.243017 
L 215.017187 105.33407 
L 215.317358 105.547159 
L 215.9177 106.375619 
L 216.818213 107.965795 
L 217.118383 108.261504 
L 217.418554 108.306323 
L 217.718725 108.061391 
L 218.018896 107.536138 
L 218.018896 107.536138 
" clip-path="url(#p64bc17e7f9)" style="fill: none; stroke: #52296c; stroke-width: 1.4; stroke-linecap: square"/>
   </g>
   <g id="patch_3">
    <path d="M 60.744375 133.665817 
L 60.744375 7.2 
" style="fill: none; stroke: #000000; stroke-width: 0.8; stroke-linejoin: miter; stroke-linecap: square"/>
   </g>
   <g id="patch_4">
    <path d="M 60.744375 133.665817 
L 225.508159 133.665817 
" style="fill: none; stroke: #000000; stroke-width: 0.8; stroke-linejoin: miter; stroke-linecap: square"/>
   </g>
  </g>
 </g>
 <defs>
  <clipPath id="p64bc17e7f9">
   <rect x="60.744375" y="7.2" width="164.763784" height="126.465817"/>
  </clipPath>
 </defs>
</svg>
